<svg version="1.1" id="Layer_1" xmlns="http://www.w3.org/2000/svg" xmlns:xlink="http://www.w3.org/1999/xlink" x="0px" y="0px" viewBox="0 0 188.1 172.3" style="enable-background:new 0 0 188.1 172.3;" xml:space="preserve">
 <style type="text/css">
  .st0{fill:#E31F26;}
	.st1{fill:none;}
 </style>
 <g>
  <g>
   <g>
    <path class="st0" d="M182.2,124.6l-56.5-99c-3.9-7-3.8-6.5-4.8-8.2c-3-5.4-7.4-10.6-12.2-13.4c-6-3.5-14.5-5.3-23.6-2.8
				c-7.9,2.2-13.7,7-20,17.9l-7.7,13.3L6.1,124c-3.2,6.2-2.5,4.9-3.6,7.2C0.9,135.5,0,138,0,142.7c0,13.9,10.8,29.3,32.2,29.4
				c3,0.1-1.3,0.1,6.2,0.2c11,0.1,89.1,0,111.3,0c3.4-0.2,2.4,0.1,6.7-0.3c15.1-0.9,26.5-7.7,30.7-22.1
				C189.8,139.7,186.9,132.7,182.2,124.6z M78.1,24c3.4-5.9,6.5-8.3,10.5-9.5c9.2-2.8,18.2,2.5,20.8,11.3c1.1,4,0.7,8.3-2.4,14.3
				L66,112H55.1L99,34.9c1.4-2.6,1.8-4.6,1.4-6.5c-1-3.7-4.6-6.2-9-4.9c-1.7,0.6-3,1.6-4.7,4.6l-47.4,83.8h-1.6
				c-2.9,0.1-6.4,0.5-10,1.7L78.1,24z M93.9,91.1l12.2,21.1H82L93.9,91.1z M32.3,158.5c-5.1-0.3-8.6-0.6-13-4.2
				c-7.2-6.8-7.2-17.3-0.7-23.6c3.2-3.1,7.6-4.9,12.9-5h81.8l5.5,9.5H30.6c-1.7,0-4,0.8-5.4,2.1c-2.8,2.7-2.6,7.2,0.3,9.9
				c1.4,1.4,3.4,1.9,5.2,1.9h96.2c2.1,3.4,3.5,5.9,7.7,9.5H32.3z M173.5,146c-2.1,9-11.8,14.6-20.7,11.8c-5-1.6-7.7-5.1-10.5-9.5
				l-40.5-70.8l5.5-9.6l43.3,75.9c2.1,3.4,3.4,4.6,5.2,5.2c3.4,1.2,7.7-1.1,8.7-4.9c0.5-1.8,0.2-3.7-1.5-6.8l-47.6-83.4
				c1.5-3.3,3.4-6.9,4-11.8l51.7,90.6C173.2,136.4,174.8,140.4,173.5,146z">
    </path>
   </g>
  </g>
 </g>
 <rect x="-57.4" y="-57.4" class="st1" width="647.1" height="287.1">
 </rect>
</svg>